<svg width="200" height="200" viewBox="0 0 200 200" fill="none" xmlns="http://www.w3.org/2000/svg">
<circle cx="100" cy="100" r="100" fill="#EFEFEF" fill-opacity="0.22"/>
<path d="M43 74H57.4172C71.4053 74 82.7448 85.3396 82.7448 99.3276V99.3276C82.7448 113.316 71.4053 124.655 57.4172 124.655H43V74Z" fill="#43C1F0"/>
<path d="M50.7931 81.7931H57.4172C67.1013 81.7931 74.9517 89.6435 74.9517 99.3276V99.3276C74.9517 109.012 67.1013 116.862 57.4172 116.862H50.7931V81.7931Z" fill="#3591D5"/>
<path d="M116 74H130.5C144.583 74 156 85.4167 156 99.5V99.5C156 113.583 144.583 125 130.5 125H116V74Z" fill="#43C1F0"/>
<path d="M80 74H93.5C107.583 74 119 85.4167 119 99.5V99.5C119 113.583 107.583 125 93.5 125H80V74Z" fill="#43C1F0"/>
<path d="M91 88H94.5C100.851 88 106 93.1487 106 99.5V99.5C106 105.851 100.851 111 94.5 111H91V88Z" fill="#3591D5"/>
</svg>
